<svg xmlns="http://www.w3.org/2000/svg" xmlns:xlink="http://www.w3.org/1999/xlink" version="1.1" x="0px" y="0px" viewBox="0 0 16 20" enable-background="new 0 0 16 16" xml:space="preserve"><path d="M8,16c-4.411,0-8-3.589-8-8s3.589-8,8-8s8,3.589,8,8S12.411,16,8,16z M8,0.941C4.107,0.941,0.941,4.107,0.941,8  S4.107,15.059,8,15.059S15.059,11.893,15.059,8S11.893,0.941,8,0.941z"/><path d="M10.637,9.938c0.195,0.195,0.195,0.512-0.001,0.707l0,0c-0.195,0.195-0.512,0.194-0.707-0.001L5.363,6.062  C5.168,5.866,5.168,5.55,5.364,5.354l0,0C5.56,5.16,5.876,5.16,6.071,5.356L10.637,9.938z"/><path d="M5.363,9.938c-0.195,0.195-0.195,0.512,0.001,0.707l0,0c0.195,0.195,0.512,0.194,0.707-0.001l4.565-4.583  c0.195-0.196,0.195-0.512-0.001-0.708l0,0C10.439,5.16,10.124,5.16,9.929,5.356L5.363,9.938z"/><text x="0" y="31" fill="#000000" font-size="5px" font-weight="bold" font-family="'Helvetica Neue', Helvetica, Arial-Unicode, Arial, Sans-serif">Created by Adnen Kadri</text><text x="0" y="36" fill="#000000" font-size="5px" font-weight="bold" font-family="'Helvetica Neue', Helvetica, Arial-Unicode, Arial, Sans-serif">from the Noun Project</text></svg>