<?xml version="1.0" standalone="no"?>
<!DOCTYPE svg PUBLIC "-//W3C//DTD SVG 20010904//EN"
 "http://www.w3.org/TR/2001/REC-SVG-20010904/DTD/svg10.dtd">
<svg version="1.0" xmlns="http://www.w3.org/2000/svg"
 width="640.000000pt" height="640.000000pt" viewBox="0 0 640.000000 640.000000"
 preserveAspectRatio="xMidYMid meet">
<metadata>
Created by potrace 1.11, written by Peter Selinger 2001-2013
</metadata>
<g transform="translate(0.000000,640.000000) scale(0.100000,-0.100000)"
fill="#000000" stroke="none">
<path d="M2820 6254 c-172 -21 -202 -26 -270 -39 -14 -3 -38 -8 -55 -11 -159
-28 -419 -116 -579 -196 -268 -134 -504 -367 -654 -648 -120 -224 -186 -485
-181 -724 8 -415 153 -832 388 -1114 l53 -63 -18 -92 c-42 -221 -20 -449 61
-612 19 -38 47 -85 64 -102 16 -18 27 -33 23 -33 -4 0 -143 68 -309 151 -349
174 -349 174 -438 349 -44 85 -73 127 -116 170 -98 95 -223 140 -311 111 -41
-14 -110 -79 -132 -126 -31 -65 -53 -176 -57 -285 l-2 -65 -108 -105 c-151
-148 -199 -244 -170 -341 24 -78 94 -131 218 -163 103 -27 189 -27 343 0 25 4
75 7 112 7 58 0 78 -6 162 -46 53 -26 98 -47 100 -47 2 0 88 -40 191 -90 103
-49 189 -90 190 -90 4 0 506 -244 595 -289 l55 -27 1 -55 2 -55 -62 -33 c-177
-95 -529 -267 -655 -320 -183 -78 -228 -85 -353 -55 -116 29 -241 27 -338 -4
-103 -33 -161 -108 -166 -213 -5 -91 25 -141 166 -276 91 -88 121 -123 125
-147 11 -67 13 -84 20 -171 9 -110 34 -181 81 -229 97 -100 236 -84 360 43 52
53 77 87 202 283 l52 83 152 80 c84 44 200 105 258 136 392 208 378 201 388
182 18 -32 145 -151 217 -203 125 -90 336 -156 575 -179 103 -10 402 -5 475 8
33 6 76 13 95 16 60 10 172 45 260 82 107 45 222 126 311 220 l69 74 123 -65
c67 -35 185 -96 262 -136 77 -40 192 -100 255 -133 149 -77 187 -114 257 -252
62 -121 122 -189 226 -256 107 -69 197 -63 277 20 59 60 86 143 104 317 l13
128 44 35 c88 71 209 199 229 242 64 143 -26 271 -227 323 -83 22 -185 20
-290 -5 -58 -14 -103 -19 -132 -15 -39 5 -170 61 -411 174 -131 62 -389 181
-452 210 l-58 25 0 69 c0 37 4 68 9 68 5 0 67 28 137 61 71 34 204 97 296 140
93 44 246 116 341 160 274 129 339 160 395 186 72 33 136 39 219 20 115 -27
140 -28 245 -17 172 19 258 66 304 165 55 116 32 165 -175 380 l-87 90 -3 72
c-1 39 -14 113 -27 165 -14 51 -28 103 -31 115 -9 36 -74 104 -117 124 -75 34
-155 21 -246 -41 -68 -46 -150 -134 -175 -187 -10 -21 -33 -70 -51 -109 -31
-66 -105 -164 -124 -164 -5 0 -135 -63 -289 -139 -155 -77 -281 -138 -281
-137 0 2 13 20 30 41 114 144 163 428 116 675 -32 163 -35 142 39 222 243 262
377 635 369 1027 -8 451 -165 830 -471 1138 -186 187 -346 284 -613 372 -115
37 -365 104 -435 115 -16 3 -70 12 -120 20 -250 43 -573 46 -865 10z m730
-147 c14 -3 45 -8 70 -12 166 -24 444 -92 610 -150 219 -76 338 -150 498 -308
299 -294 445 -662 437 -1102 -6 -275 -73 -495 -220 -715 -88 -133 -92 -135
-101 -63 -9 76 -10 232 -1 307 4 32 25 111 46 175 49 142 58 178 67 261 23
225 4 342 -68 426 l-22 24 -57 -56 c-56 -56 -57 -57 -39 -76 29 -31 41 -103
35 -203 -8 -138 -12 -159 -66 -322 -50 -153 -63 -233 -63 -383 1 -72 13 -213
24 -270 5 -25 11 -58 13 -75 3 -16 17 -91 33 -165 46 -224 35 -412 -32 -560
-47 -102 -102 -141 -309 -215 -71 -25 -157 -60 -190 -77 -75 -39 -195 -121
-221 -151 -78 -90 -122 -189 -131 -297 l-6 -67 -66 -16 c-102 -25 -177 -37
-291 -46 -147 -12 -630 -6 -720 8 -100 16 -209 41 -215 51 -2 4 -7 35 -10 68
-14 170 -127 324 -311 428 -34 19 -122 54 -196 78 -268 88 -332 144 -383 336
-20 75 -29 285 -15 345 52 220 88 475 88 625 0 167 -9 221 -63 380 -47 140
-61 217 -64 360 -2 73 1 92 23 135 l26 50 -54 54 -53 53 -23 -23 c-12 -13 -34
-49 -48 -79 -23 -49 -26 -69 -28 -175 -2 -159 13 -252 70 -425 26 -79 49 -162
51 -184 6 -57 6 -246 0 -275 -2 -13 -5 -41 -7 -63 -1 -22 -5 -41 -9 -44 -12
-7 -84 104 -138 213 -94 188 -145 369 -176 623 -50 413 143 892 475 1177 176
151 383 252 670 327 309 80 524 105 875 100 143 -1 271 -5 285 -7z m2337
-2849 c15 -18 51 -135 59 -188 6 -38 8 -77 13 -193 1 -10 42 -57 92 -105 50
-48 114 -116 142 -150 44 -56 49 -67 41 -89 -14 -39 -70 -63 -176 -74 -78 -9
-105 -8 -163 6 -39 9 -97 19 -131 22 -105 9 -133 -2 -629 -237 -60 -29 -137
-65 -170 -80 -33 -15 -109 -51 -170 -80 -205 -97 -383 -180 -389 -180 -2 0 -3
8 -2 18 2 9 7 43 11 76 7 61 38 171 75 268 l21 58 192 94 c567 278 744 367
767 388 55 51 101 119 153 228 55 115 74 139 158 199 44 32 89 40 106 19z
m-5266 -36 c63 -41 103 -90 153 -192 52 -105 102 -177 149 -213 19 -14 78 -49
133 -79 94 -50 619 -307 770 -377 l71 -33 31 -92 c40 -119 59 -197 68 -274 l7
-62 -179 86 c-99 47 -224 108 -279 134 -55 26 -167 80 -250 120 -82 40 -177
85 -210 100 -33 15 -108 50 -167 78 -157 74 -201 79 -395 50 -133 -20 -196
-18 -279 7 -52 15 -84 40 -84 65 0 26 56 98 128 165 135 124 152 145 153 184
3 104 17 222 33 276 28 90 69 106 147 57z m1508 -922 c72 -187 119 -349 145
-505 18 -109 25 -163 26 -192 1 -51 152 -180 285 -244 82 -40 231 -84 320 -94
28 -4 61 -9 75 -11 63 -12 400 -12 480 1 257 40 460 129 578 255 44 46 58 80
67 160 18 167 74 398 141 579 60 161 65 171 103 187 18 8 35 14 36 14 2 0 -15
-46 -36 -101 -47 -122 -86 -264 -96 -357 -9 -78 -9 -74 6 -175 15 -106 14
-193 -4 -312 -25 -163 -64 -259 -156 -381 -155 -207 -315 -296 -644 -360 -54
-10 -388 -12 -473 -2 -132 14 -307 62 -402 110 -137 69 -273 215 -359 384 -74
146 -105 405 -70 592 6 34 9 81 5 105 -3 23 -8 65 -12 92 -8 62 -54 220 -94
320 -17 42 -30 77 -30 79 0 3 14 -1 30 -7 27 -10 36 -25 79 -137z m117 36 c89
-68 139 -152 152 -253 6 -47 11 -60 30 -68 l23 -10 -3 -227 c-2 -126 -6 -228
-9 -228 -3 0 -17 12 -31 28 -17 18 -28 44 -32 77 -4 28 -9 61 -11 75 -2 14 -9
55 -15 92 -20 129 -93 379 -155 531 -10 25 1 21 51 -17z m1897 -144 c-50 -153
-104 -387 -118 -521 -6 -50 -13 -70 -36 -95 l-28 -31 -1 125 c-1 69 -2 172 -3
229 l-2 105 31 18 c28 16 32 24 37 77 7 77 46 150 112 207 27 24 52 44 55 44
4 0 -17 -71 -47 -158z m-252 -307 c2 -49 0 -96 -4 -103 -5 -7 -31 -24 -58 -37
l-49 -25 0 112 0 113 53 16 c28 8 53 15 54 15 1 -1 3 -41 4 -91z m-1316 73
l45 -12 0 -113 0 -113 -55 27 -54 28 -1 98 c0 57 4 97 10 97 5 0 30 -5 55 -12z
m208 -44 l27 -6 0 -124 c0 -138 4 -133 -75 -105 l-50 18 -1 117 0 117 35 -6
c20 -3 48 -8 64 -11z m936 -102 l1 -118 -52 -14 c-29 -7 -59 -15 -65 -17 -10
-4 -13 25 -13 125 l0 131 33 3 c17 2 46 4 63 6 l31 2 2 -118z m-768 88 l29 0
0 -135 0 -135 -42 6 c-73 10 -69 2 -66 136 2 120 9 143 36 133 8 -3 27 -5 43
-5z m575 -121 l2 -127 -30 -6 c-78 -15 -74 -21 -75 123 -1 144 -5 137 72 136
l30 0 1 -126z m-351 -15 c1 -144 4 -135 -55 -136 -14 -1 -36 0 -50 1 l-26 1 2
128 c1 70 2 130 3 133 1 4 29 7 64 7 l62 0 0 -134z m185 1 l0 -135 -60 0 c-50
0 -60 3 -61 18 0 9 -1 70 -2 135 l-2 117 63 0 62 0 0 -135z m-790 -90 l50 -25
0 -111 0 -110 -52 28 -53 28 -3 108 c-1 59 0 107 3 107 3 0 28 -11 55 -25z
m1326 -83 l1 -102 -52 -30 c-29 -17 -55 -30 -57 -30 -3 0 -5 50 -5 111 l0 110
46 24 c25 13 50 23 56 21 5 -1 10 -47 11 -104z m-1138 13 l53 -17 -3 -105 c-2
-72 -6 -107 -15 -110 -7 -3 -35 3 -63 12 l-50 17 1 113 c1 78 5 112 13 110 6
-2 35 -11 64 -20z m962 -89 l0 -114 -52 -18 c-29 -9 -58 -19 -64 -21 -8 -3
-11 32 -10 114 l1 118 60 17 c33 9 61 17 63 17 1 1 2 -50 2 -113z m-757 54
c15 0 17 -12 17 -119 0 -108 -2 -119 -17 -116 -10 2 -35 7 -55 10 l-38 6 0
115 0 116 38 -6 c20 -3 45 -5 55 -6z m567 -105 c0 -126 2 -123 -64 -127 l-40
-3 -1 115 c-1 63 -1 118 1 121 2 3 26 6 53 8 l51 2 0 -116z m-360 96 c3 -1 6
-55 5 -121 l0 -119 -50 3 c-27 3 -57 5 -66 5 -14 1 -16 16 -14 119 1 64 3 117
4 117 7 0 117 -4 121 -4z m190 -107 c0 -63 1 -117 3 -121 1 -5 -26 -9 -60 -11
l-63 -3 -1 46 c0 25 0 65 0 90 0 25 0 60 0 78 l1 32 60 1 60 1 0 -113z m-1359
-21 c2 -46 34 -152 70 -232 33 -73 34 -78 15 -83 -7 -2 -184 -93 -391 -203
-428 -227 -403 -207 -524 -410 -95 -159 -193 -252 -245 -232 -24 9 -43 57 -50
122 -10 98 -19 169 -21 180 -1 6 -5 32 -10 59 -7 47 -15 57 -142 180 -112 110
-135 137 -140 167 -7 48 18 73 86 88 76 16 133 14 230 -10 141 -34 223 -25
402 47 79 32 270 122 424 200 154 78 283 142 288 143 4 1 7 -7 8 -16z m2663
-102 c59 -28 110 -51 111 -51 2 0 65 -29 140 -65 76 -36 139 -65 141 -65 2 0
38 -17 81 -38 43 -21 101 -45 128 -52 67 -20 186 -17 260 5 77 23 164 21 239
-5 117 -40 123 -70 33 -161 -34 -35 -94 -90 -132 -123 -39 -32 -75 -68 -81
-80 -11 -20 -15 -52 -30 -206 -12 -130 -46 -220 -83 -220 -22 0 -88 43 -139
92 -21 20 -53 67 -71 105 -45 96 -108 186 -163 235 -26 23 -118 78 -205 123
-87 44 -228 117 -313 162 -85 45 -183 95 -218 113 -34 17 -61 34 -59 38 41 75
77 178 101 284 l6 27 73 -33 c39 -19 121 -57 181 -85z"/>
<path d="M2570 3980 c-52 -8 -92 -13 -200 -26 -104 -12 -277 -43 -305 -55 -95
-41 -161 -113 -188 -206 -24 -79 -14 -131 60 -313 66 -162 69 -166 143 -241
87 -88 152 -119 262 -127 123 -8 191 32 310 181 96 120 171 233 224 337 35 70
38 81 38 165 1 78 -3 98 -26 145 -31 63 -49 86 -97 119 -38 27 -127 36 -221
21z"/>
<path d="M3624 3962 c-84 -50 -134 -149 -134 -266 0 -35 7 -83 15 -107 39
-111 211 -365 325 -480 73 -74 128 -99 217 -99 65 0 161 31 219 70 93 64 135
127 209 311 62 151 70 178 68 230 -5 156 -136 285 -308 304 -32 4 -62 8 -65
10 -3 1 -30 6 -61 9 -31 4 -65 8 -75 10 -11 2 -47 7 -81 11 -35 4 -75 8 -90
11 -16 2 -64 6 -108 9 -76 6 -83 5 -131 -23z"/>
<path d="M3140 3192 c0 -4 -12 -15 -27 -24 -90 -54 -202 -208 -247 -340 -25
-76 -28 -96 -31 -233 -3 -104 0 -140 14 -182 49 -143 107 -146 240 -12 l67 69
2 365 c0 224 -3 365 -9 365 -5 0 -9 -4 -9 -8z"/>
<path d="M3249 3193 c0 -4 0 -170 0 -368 l1 -360 79 -77 c115 -112 161 -115
212 -15 32 62 42 188 26 321 -22 184 -119 351 -275 474 -23 19 -42 30 -43 25z"/>
</g>
</svg>
